<svg xmlns="http://www.w3.org/2000/svg" width="188" height="30" viewBox="0 0 188 30"><rect width="100%" height="100%" fill="#DDDDDD"/><path fill="#ffffeb" d="M47.945 19.29c3 0 4.45-1.5 4.45-3.25 0-3.86-6.1-2.52-6.1-4.46 0-.66.55-1.2 1.99-1.2.93 0 1.94.27 2.91.83l.75-1.85c-.97-.62-2.32-.93-3.64-.93-2.99 0-4.43 1.48-4.43 3.27 0 3.9 6.11 2.55 6.11 4.51 0 .65-.59 1.13-2.03 1.13-1.26 0-2.58-.45-3.46-1.09l-.83 1.83c.93.71 2.61 1.21 4.28 1.21m11.74-8.25v3.99c0 1.49-.78 2.17-1.86 2.17-1.03 0-1.63-.59-1.63-1.94v-4.22h-2.34v4.56c0 2.49 1.42 3.63 3.45 3.63.99 0 1.89-.38 2.5-1.08v.96h2.22v-8.07Zm9.29-.12c-1.08 0-1.95.35-2.54 1.05v-.93h-2.23v10.98h2.34v-3.76c.6.65 1.42.97 2.43.97 2.26 0 4.02-1.62 4.02-4.16 0-2.53-1.76-4.15-4.02-4.15m-.41 6.39c-1.17 0-2.05-.84-2.05-2.24 0-1.39.88-2.23 2.05-2.23s2.06.84 2.06 2.23c0 1.4-.89 2.24-2.06 2.24m13.89-2.2c0-2.6-1.83-4.19-4.2-4.19-2.46 0-4.3 1.74-4.3 4.15 0 2.4 1.81 4.16 4.6 4.16 1.46 0 2.58-.45 3.33-1.31l-1.24-1.34c-.56.52-1.17.78-2.03.78-1.23 0-2.08-.62-2.31-1.63h6.11c.01-.19.04-.44.04-.62m-4.18-2.42c1.05 0 1.81.66 1.98 1.68h-3.98c.17-1.03.93-1.68 2-1.68m7.98-.58v-1.07h-2.24v8.07h2.34V15.3c0-1.54.86-2.25 2.15-2.25.18 0 .33.02.52.03v-2.16c-1.24 0-2.2.4-2.77 1.19m9.07-1.19c-1.03 0-1.93.33-2.56.96v-3.9h-2.34v11.13h2.34v-3.99c0-1.48.81-2.18 1.93-2.18 1.04 0 1.64.61 1.64 1.91v4.26h2.34v-4.62c0-2.46-1.44-3.57-3.35-3.57m11.25.12v3.99c0 1.49-.78 2.17-1.86 2.17-1.03 0-1.63-.59-1.63-1.94v-4.22h-2.34v4.56c0 2.49 1.42 3.63 3.45 3.63.99 0 1.89-.38 2.5-1.08v.96h2.22v-8.07Zm14.85-.12c-1.21 0-2.26.5-2.91 1.32-.57-.88-1.53-1.32-2.65-1.32-1.04 0-1.94.36-2.54 1.05v-.93h-2.23v8.07h2.34v-4.05c0-1.44.73-2.12 1.77-2.12.97 0 1.53.61 1.53 1.91v4.26h2.34v-4.05c0-1.44.73-2.12 1.78-2.12.95 0 1.53.61 1.53 1.91v4.26h2.34v-4.62c0-2.46-1.38-3.57-3.3-3.57m8.66 0c-1.29 0-2.6.35-3.48.98l.84 1.63c.58-.46 1.47-.75 2.32-.75 1.26 0 1.86.58 1.86 1.59h-1.86c-2.46 0-3.46.99-3.46 2.42 0 1.39 1.12 2.44 3.01 2.44 1.19 0 2.03-.39 2.46-1.12v1h2.19v-4.6c0-2.45-1.42-3.59-3.88-3.59m-.18 6.74c-.83 0-1.32-.39-1.32-.98 0-.54.34-.95 1.44-.95h1.6v.83c-.27.74-.94 1.1-1.72 1.1m11.08-6.74c-1.09 0-2.04.38-2.67 1.06v-.94h-2.23v8.07h2.34v-3.99c0-1.48.81-2.18 1.93-2.18 1.04 0 1.64.61 1.64 1.91v4.26h2.34v-4.62c0-2.46-1.44-3.57-3.35-3.57"/></svg>